<?xml version="1.0" encoding="UTF-8" standalone="no"?>
<!-- Created with Inkscape (http://www.inkscape.org/) -->
<svg width="100mm" height="100mm" viewBox="0 0 100 100" version="1.1" id="svg5" inkscape:version="1.1 (c68e22c387, 2021-05-23)" sodipodi:docname="store-win8-4.svg" xmlns:inkscape="http://www.inkscape.org/namespaces/inkscape" xmlns:sodipodi="http://sodipodi.sourceforge.net/DTD/sodipodi-0.dtd" xmlns="http://www.w3.org/2000/svg" xmlns:svg="http://www.w3.org/2000/svg">
  <sodipodi:namedview id="namedview7" pagecolor="#ffffff" bordercolor="#666666" borderopacity="1.0" inkscape:pageshadow="2" inkscape:pageopacity="0.0" inkscape:pagecheckerboard="0" inkscape:document-units="mm" showgrid="false" inkscape:zoom="1.5287038" inkscape:cx="144.894" inkscape:cy="140.9691" inkscape:window-width="1920" inkscape:window-height="1017" inkscape:window-x="1912" inkscape:window-y="-8" inkscape:window-maximized="1" inkscape:current-layer="layer1"/>
  <defs id="defs2"/>
  <g inkscape:label="Capa 1" inkscape:groupmode="layer" id="layer1">
    
    <rect style="fill:#009b00;fill-opacity:1;fill-rule:evenodd;stroke:none;stroke-width:3.94254;stroke-linecap:square;stroke-miterlimit:4;stroke-dasharray:none;stroke-opacity:1;paint-order:markers fill stroke;stop-color:#000000" id="rect6626" width="99.710899" height="99.710899" x="0.23798078" y="0.080408134"/><g id="g1166" transform="matrix(0.81041067,0,0,0.81041067,7.788552,8.0955731)">
      <path style="fill:#ffffff;fill-opacity:1;stroke:none;stroke-width:0.505147px;stroke-linecap:butt;stroke-linejoin:miter;stroke-opacity:1" d="m 30.468818,30.71472 -4.532453,43.713834 11.272409,5.581367 39.00077,-5.828097 -4.517635,-44.332453 -32.840649,0.227815 -4.403034,4.636418 -1.594614,-3.999565 z" id="path869" sodipodi:nodetypes="ccccccccc"/>
      <path id="path1795-3-6" style="fill:none;stroke:#ffffff;stroke-width:2.03332;stroke-linecap:butt;stroke-linejoin:miter;stroke-miterlimit:4;stroke-dasharray:none;stroke-opacity:1" d="m 61.389427,28.934437 c 0,0 -0.02455,-4.603939 -0.0413,-7.573727 -0.0168,-2.969787 -2.02396,-6.237092 -6.030571,-6.237092 m -6.071867,13.809969 c 0,0 0.02455,-4.603089 0.0413,-7.572877 0.0168,-2.969787 2.023959,-6.237092 6.03057,-6.237092" sodipodi:nodetypes="cccccc"/>
      <path style="fill:#ffffff;fill-opacity:1;fill-rule:evenodd;stroke:none;stroke-width:0.227955;stroke-linecap:square;stroke-miterlimit:4;stroke-dasharray:none;stroke-opacity:1;paint-order:markers fill stroke;stop-color:#000000" d="m 42.222805,28.902542 -0.710123,-0.0084 0.01661,-3.023585 c 0.01944,-3.987485 0.02914,-4.448474 0.104339,-4.960819 0.368487,-2.510651 2.049142,-4.595292 4.385889,-5.440141 0.818432,-0.295903 1.522258,-0.422923 2.481575,-0.447849 0.567852,-0.01476 1.270079,0.0186 1.435417,0.06819 0.04162,0.01249 -0.0189,0.08932 -0.295631,0.375683 -0.366091,0.378735 -0.77123,0.893541 -1.01166,1.285506 -0.07883,0.128512 -0.144757,0.236445 -0.146495,0.239851 -0.0015,0.0034 -0.153711,0.02028 -0.337716,0.0375 -1.301634,0.121808 -2.339105,0.585075 -3.169177,1.415147 -0.676647,0.676647 -1.118341,1.502838 -1.328056,2.484135 -0.08086,0.378318 -0.111422,1.601522 -0.114267,4.570931 -0.0011,1.16464 -0.01069,2.501966 -0.02127,2.971836 l -0.01926,0.453874 -0.280065,-0.0067 c -0.154036,-0.0038 -0.59962,-0.0105 -0.990189,-0.01508 z" id="path4132" sodipodi:nodetypes="cccsssscscssscccccc"/>
      <path style="fill:#ffffff;fill-opacity:1;fill-rule:evenodd;stroke:none;stroke-width:0.227955;stroke-linecap:square;stroke-miterlimit:4;stroke-dasharray:none;stroke-opacity:1;paint-order:markers fill stroke;stop-color:#000000" d="m 53.948021,25.468646 c -0.01146,-2.200695 -0.03253,-3.957814 -0.04895,-4.095413 -0.13397,-1.123981 -0.598029,-2.120091 -1.354136,-2.906652 l -0.147869,-0.153835 0.203943,-0.191647 c 0.375569,-0.352925 0.86144,-0.643041 1.340523,-0.800433 l 0.20196,-0.06635 0.08397,0.0989 c 0.938768,1.105641 1.49933,2.402326 1.658936,3.83743 0.02075,0.186703 0.04168,1.698602 0.058,4.190803 0.01413,2.144304 0.02314,3.494542 0.0202,3.496573 -0.0031,0.0021 -0.453304,0.01165 -1.000865,0.02144 l -0.995561,0.01776 z" id="path4171" sodipodi:nodetypes="ccscsscssccccc"/>
    </g>
    
  </g>
</svg>